<?xml version="1.0" standalone="no"?>
<!DOCTYPE svg PUBLIC "-//W3C//DTD SVG 20010904//EN"
 "http://www.w3.org/TR/2001/REC-SVG-20010904/DTD/svg10.dtd">
<svg version="1.0" xmlns="http://www.w3.org/2000/svg"
 width="1176.000000pt" height="1280.000000pt" viewBox="0 0 1176.000000 1280.000000"
 preserveAspectRatio="xMidYMid meet">
<metadata>
Created by potrace 1.15, written by Peter Selinger 2001-2017
</metadata>
<g transform="translate(0.000000,1280.000000) scale(0.100000,-0.100000)"
fill="#ffffff" stroke="none">
<path d="M8530 12793 c-19 -2 -133 -15 -253 -28 -404 -46 -647 -110 -944 -250
-217 -103 -325 -185 -583 -445 -168 -170 -227 -222 -590 -521 -91 -75 -226
-199 -300 -275 -152 -157 -334 -378 -337 -409 -1 -12 -32 -70 -70 -129 -37
-59 -76 -120 -86 -136 -15 -23 -16 -33 -7 -51 17 -31 5 -78 -39 -145 -21 -32
-38 -60 -36 -62 1 -1 15 4 31 13 48 25 47 18 -8 -47 -154 -182 -248 -338 -483
-802 -258 -508 -324 -677 -440 -1135 -31 -124 -66 -243 -77 -265 -37 -73 -126
-199 -194 -276 -36 -41 -83 -100 -104 -130 -70 -103 -160 -302 -160 -354 0
-21 -6 -25 -47 -31 -26 -4 -90 -23 -143 -42 -123 -45 -433 -197 -474 -233 -17
-15 -59 -36 -94 -48 -35 -12 -71 -29 -80 -40 -11 -12 -70 -33 -157 -56 -193
-52 -372 -117 -929 -337 -470 -186 -769 -314 -1053 -449 -78 -37 -171 -78
-207 -90 -52 -17 -66 -26 -66 -41 0 -16 -22 -30 -97 -65 -92 -43 -143 -77
-143 -95 0 -21 43 -31 87 -19 25 6 47 9 50 7 2 -3 -44 -31 -103 -63 -98 -54
-125 -76 -111 -91 4 -3 29 4 58 16 28 12 53 21 55 18 6 -6 -103 -80 -147 -101
-36 -17 -86 -72 -75 -84 3 -3 26 4 50 16 24 12 62 22 85 22 23 0 67 11 99 24
202 85 897 336 930 336 49 -1 34 -9 -105 -59 -187 -67 -363 -140 -493 -205
-221 -110 -574 -308 -613 -345 -37 -35 -37 -36 -15 -44 21 -8 19 -10 -27 -35
-35 -20 -49 -33 -47 -46 2 -11 -4 -20 -17 -23 -12 -3 -21 -9 -21 -14 0 -20 25
-19 103 5 45 13 186 50 312 81 498 122 792 214 1620 506 502 178 674 242 817
304 54 24 98 39 98 34 0 -5 -9 -23 -20 -41 -26 -43 -25 -58 4 -58 28 0 54 25
34 33 -10 4 -10 8 3 21 14 15 17 15 33 -3 16 -17 16 -25 6 -56 -9 -29 -9 -39
0 -48 9 -9 18 -4 39 21 23 27 33 32 55 26 19 -4 26 -13 26 -29 0 -33 16 -39
34 -14 14 21 15 21 22 -16 3 -20 12 -39 19 -41 7 -3 26 -22 43 -44 l31 -38
-34 -68 c-19 -38 -35 -76 -35 -85 0 -18 20 -29 51 -29 24 0 24 -2 -6 -46 -41
-60 -33 -69 55 -76 29 -3 34 -7 32 -23 -2 -10 -48 -109 -103 -218 -54 -110
-99 -206 -99 -214 0 -7 -13 -39 -29 -71 -15 -31 -42 -100 -60 -152 -17 -52
-37 -105 -44 -118 -7 -12 -58 -68 -113 -125 l-101 -102 -6 -73 c-4 -40 -8 -78
-10 -84 -1 -6 13 -14 30 -18 18 -4 40 -13 48 -20 13 -11 43 4 188 90 217 130
499 315 733 481 l181 128 117 30 c157 41 314 104 528 214 l176 90 103 -89 c56
-49 155 -140 220 -201 128 -122 199 -173 328 -234 81 -39 105 -63 40 -40 -49
17 -97 14 -108 -7 -13 -25 -3 -37 44 -52 22 -7 63 -23 90 -35 28 -13 81 -27
118 -30 58 -6 70 -11 77 -29 14 -38 36 -47 132 -56 51 -5 94 -10 95 -10 10 -1
100 -144 135 -215 46 -92 57 -120 199 -520 45 -126 131 -363 191 -525 60 -162
154 -414 208 -560 122 -332 186 -489 267 -660 46 -97 68 -157 78 -214 19 -102
47 -176 96 -252 38 -58 47 -84 32 -84 -13 0 -382 129 -427 149 -24 10 -69 35
-101 56 -86 54 -230 115 -274 115 -76 0 -152 -80 -173 -183 -12 -54 -11 -60 6
-73 31 -22 87 -10 116 25 53 63 110 46 110 -34 0 -70 22 -88 119 -96 90 -8 58
6 508 -222 185 -94 258 -136 273 -157 47 -65 110 -401 94 -497 -10 -64 -8 -72
29 -111 29 -30 31 -37 34 -120 5 -130 49 -271 97 -311 51 -43 95 42 105 207 8
121 11 132 61 206 36 53 36 59 6 127 -91 205 -96 218 -96 263 0 83 64 119 143
81 18 -8 92 -35 165 -60 74 -25 213 -79 310 -120 228 -95 267 -109 383 -139
101 -27 122 -26 187 8 18 9 44 34 58 56 15 22 30 40 35 40 18 0 63 -49 83 -90
40 -85 90 -42 90 77 0 53 -6 73 -43 144 -36 67 -41 86 -32 101 6 10 11 28 11
40 0 32 -27 117 -46 146 -18 27 -127 100 -164 109 -14 3 -50 17 -80 31 -78 37
-141 38 -405 7 -135 -16 -254 -25 -289 -22 -32 3 -66 1 -75 -5 -12 -7 -52 11
-175 81 -88 50 -173 103 -189 118 -16 16 -57 69 -90 118 -104 153 -177 250
-196 257 -47 17 -338 816 -699 1918 -60 184 -133 395 -161 468 -28 74 -51 138
-51 143 0 5 23 9 51 9 41 0 50 -3 45 -15 -8 -22 20 -19 60 6 30 18 38 19 67 8
26 -9 54 -9 120 -1 71 9 102 8 177 -5 83 -15 90 -18 90 -39 0 -34 29 -44 127
-43 138 1 196 11 240 42 l40 27 169 -2 c132 -2 168 -6 166 -16 -1 -7 2 -22 8
-32 14 -26 90 -27 255 -4 63 9 126 13 139 10 13 -3 34 -23 48 -43 14 -21 80
-99 148 -173 246 -270 625 -714 767 -897 84 -109 208 -292 361 -533 l111 -176
7 -123 c5 -94 4 -125 -5 -131 -7 -4 -86 8 -174 26 -89 19 -179 34 -200 34 -40
0 -176 37 -259 71 -26 11 -76 22 -110 26 -41 4 -86 17 -128 38 -92 46 -163 65
-244 65 -59 0 -79 -5 -118 -28 -71 -42 -221 -174 -243 -215 -19 -35 -19 -37 0
-56 25 -29 45 -26 136 14 108 49 230 79 292 72 27 -4 69 -18 93 -32 44 -26 94
-87 94 -115 0 -24 28 -59 63 -77 27 -14 69 -17 277 -17 244 -1 245 -2 405 -38
88 -20 211 -46 273 -57 62 -11 119 -24 126 -28 8 -4 35 -32 61 -61 26 -29 96
-84 155 -123 105 -68 108 -72 129 -128 34 -95 65 -109 193 -87 46 8 47 8 68
-25 17 -27 20 -47 18 -98 -3 -73 8 -86 45 -49 41 41 69 132 70 225 1 75 -1 85
-31 133 -18 29 -31 54 -29 56 4 4 204 -48 272 -71 28 -10 77 -29 110 -44 33
-15 106 -42 162 -60 56 -18 144 -57 196 -87 109 -62 163 -70 230 -34 52 28 79
25 125 -12 48 -39 72 -77 72 -112 0 -30 21 -34 41 -10 9 11 14 44 14 98 0 71
-4 87 -27 128 -38 63 -78 94 -223 172 -155 83 -241 116 -305 116 -77 0 -228
29 -263 51 l-32 19 112 0 c128 0 210 -15 224 -42 21 -39 140 -3 159 47 5 14
14 25 20 25 25 0 157 -69 179 -94 31 -33 49 -33 62 1 14 38 2 98 -28 134 -36
42 -191 119 -245 120 -24 1 -58 11 -76 21 -40 24 -128 27 -397 14 -131 -6
-192 -5 -225 3 -110 29 -509 156 -542 172 -20 10 -71 48 -113 84 -42 36 -83
65 -90 65 -7 0 -39 44 -70 97 -167 281 -295 458 -549 758 -226 266 -376 454
-501 625 -111 151 -216 286 -293 374 l-52 59 77 53 c42 30 79 52 81 50 2 -3
-8 -25 -23 -50 -46 -79 -10 -101 72 -45 l45 31 14 -21 c17 -24 38 -18 84 24
14 13 40 26 58 30 31 6 33 5 27 -14 -11 -36 21 -37 64 -3 31 25 45 30 72 26
25 -4 52 3 104 27 39 17 82 31 96 30 14 0 52 8 83 19 43 15 63 17 77 9 29 -15
47 -6 140 71 46 39 89 70 96 70 29 0 210 101 220 122 7 16 25 27 58 36 35 9
62 27 106 71 55 56 61 59 87 49 46 -18 76 -2 164 82 46 44 94 90 106 103 13
12 29 22 35 22 25 0 172 260 232 411 20 51 50 105 68 125 59 63 176 233 226
329 27 52 92 192 144 310 52 118 114 256 137 305 23 50 58 128 77 175 19 47
66 150 103 230 38 80 76 174 85 209 9 35 34 98 55 140 80 160 160 427 160 535
0 39 7 114 16 166 19 110 21 426 4 522 -6 33 -27 96 -46 139 -30 68 -36 97
-45 197 -23 292 -88 482 -247 722 -38 58 -88 139 -112 182 -79 142 -294 414
-412 523 -30 28 -82 74 -117 104 -71 61 -120 130 -152 215 -18 47 -20 62 -10
77 9 16 9 24 -4 42 -16 24 -21 77 -6 77 5 0 13 -9 16 -20 12 -37 35 -16 35 32
0 11 9 31 20 45 11 14 20 39 20 55 0 20 12 40 40 68 22 22 40 46 40 54 0 7 7
17 15 20 12 4 13 10 5 25 -5 11 -8 26 -5 33 4 9 -8 20 -30 31 -38 18 -40 39
-2 29 18 -4 20 -3 11 9 -18 23 -25 76 -11 86 18 14 308 146 402 183 44 18 145
55 225 82 228 79 236 83 276 146 19 30 34 61 32 70 -4 22 -62 60 -111 73 -125
34 -236 36 -592 14 -132 -8 -282 -16 -333 -17 -89 -3 -92 -2 -92 19 0 12 9 27
20 33 29 15 25 30 -9 30 -36 0 -55 22 -47 55 4 15 2 25 -5 25 -6 0 -22 9 -36
20 -14 11 -35 20 -45 20 -13 0 -18 5 -15 14 4 10 -2 16 -16 18 -14 2 -33 24
-57 66 -87 155 -220 255 -464 351 -258 101 -573 199 -726 226 -133 23 -530 48
-610 38z m320 -11833 c21 -17 23 -21 10 -30 -9 -7 -36 -8 -65 -5 -27 4 -94 10
-147 13 -106 8 -129 16 -70 25 21 4 60 22 87 41 l49 35 55 -30 c31 -16 67 -38
81 -49z"/>
</g>
</svg>
