<?xml version="1.0" standalone="no"?>
<!DOCTYPE svg PUBLIC "-//W3C//DTD SVG 20010904//EN"
 "http://www.w3.org/TR/2001/REC-SVG-20010904/DTD/svg10.dtd">
<svg version="1.0" xmlns="http://www.w3.org/2000/svg"
 width="996.000000pt" height="1280.000000pt" viewBox="0 0 996.000000 1280.000000"
 preserveAspectRatio="xMidYMid meet">
<metadata>
Created by potrace 1.15, written by Peter Selinger 2001-2017
</metadata>
<g transform="translate(0.000000,1280.000000) scale(0.100000,-0.100000)"
fill="#ffffff" stroke="none">
<path d="M1610 12790 c-61 -5 -150 -26 -315 -74 l-230 -67 -247 -143 c-222
-127 -272 -161 -481 -326 l-234 -184 -52 -137 -52 -137 22 -157 21 -158 67
-95 68 -96 108 -36 108 -35 29 -74 c24 -61 49 -97 140 -203 l110 -129 33 -127
c17 -70 79 -253 137 -407 58 -154 133 -365 166 -470 l60 -190 12 -205 c13
-233 17 -255 73 -365 l40 -80 12 -200 12 -200 41 -84 c39 -80 46 -87 116 -134
84 -55 75 -38 129 -247 23 -88 38 -170 42 -235 16 -268 30 -401 66 -645 48
-317 58 -370 70 -370 5 0 9 17 10 38 3 100 12 90 93 -105 43 -103 82 -192 87
-198 12 -12 12 21 -1 64 -13 47 -7 39 111 -139 100 -150 124 -171 100 -86 -5
20 -8 36 -6 36 2 0 62 -82 133 -182 131 -183 131 -183 319 -346 104 -89 199
-170 212 -178 12 -9 19 -20 14 -25 -4 -4 -201 -114 -436 -243 l-429 -234 -191
-179 c-113 -105 -191 -184 -190 -194 1 -9 -36 -59 -82 -112 -83 -93 -86 -98
-100 -171 -24 -127 1 -222 84 -325 31 -38 96 -80 107 -69 2 2 -8 38 -23 79
-21 59 -26 93 -26 169 0 105 16 155 71 220 l30 35 11 -41 c10 -37 15 -43 48
-49 34 -6 39 -3 97 53 34 32 117 104 186 159 124 98 126 99 230 127 81 21 147
50 285 121 99 51 269 132 379 180 186 81 199 85 211 68 40 -54 41 -55 108 -60
65 -6 70 -4 107 26 l39 31 63 -30 c40 -19 79 -30 108 -30 72 0 219 -28 277
-52 l53 -22 -63 -37 c-34 -20 -155 -74 -268 -118 -237 -94 -517 -245 -511
-277 2 -10 -22 -43 -61 -83 -91 -94 -109 -145 -100 -294 5 -97 11 -121 39
-182 19 -43 49 -86 75 -111 45 -42 119 -91 119 -79 0 4 -23 45 -50 90 -31 52
-55 105 -62 139 -10 51 -8 67 17 161 24 92 64 173 86 175 3 0 11 -18 18 -39 6
-22 18 -56 27 -76 l15 -36 92 84 c73 67 139 112 319 220 l226 135 294 40 c257
36 326 42 558 47 l265 7 385 -51 c212 -28 468 -65 570 -81 102 -16 232 -34
290 -40 58 -6 124 -13 147 -16 l42 -6 35 -107 c29 -88 176 -643 176 -664 0 -4
4 -7 9 -7 4 0 23 93 41 206 18 113 36 202 40 197 4 -4 106 -177 227 -383 155
-263 287 -506 442 -812 l222 -436 72 -26 c40 -15 160 -57 267 -95 157 -55 197
-73 208 -92 6 -13 77 -155 155 -314 l144 -291 214 -260 c118 -142 293 -358
389 -479 l174 -220 308 -254 308 -254 136 -194 c75 -106 140 -193 144 -193 5
0 -7 37 -26 83 -20 45 -126 293 -236 552 -112 262 -259 587 -333 735 -111 223
-146 305 -220 515 -56 160 -117 311 -170 420 -45 94 -306 575 -580 1070 -490
885 -679 1235 -670 1243 4 4 231 -28 320 -44 26 -5 15 8 -76 94 -58 55 -106
106 -106 114 0 7 -33 69 -72 136 -40 68 -75 131 -78 139 -4 9 38 -21 92 -66
54 -44 100 -80 101 -78 2 2 -39 123 -91 271 -52 147 -95 272 -95 277 0 5 9 9
20 9 11 0 20 3 20 8 0 4 -16 59 -35 122 -19 63 -57 241 -85 395 -48 261 -56
294 -126 493 -42 117 -105 274 -141 350 -78 162 -161 416 -238 720 -40 160
-72 262 -123 387 -38 94 -89 235 -114 315 -76 240 -142 404 -216 533 -38 67
-135 236 -215 375 -81 138 -143 252 -138 252 4 0 34 -9 66 -20 32 -11 59 -19
60 -18 2 2 -17 45 -40 97 -43 94 -43 94 -293 345 -157 158 -272 283 -310 337
l-61 86 -293 150 c-161 83 -363 181 -449 217 -139 60 -162 73 -225 131 -38 36
-72 65 -76 65 -4 0 -23 31 -42 69 -33 65 -54 85 -408 402 -205 184 -510 462
-678 619 -225 211 -362 330 -523 454 -120 93 -231 174 -245 181 -15 7 -152 68
-304 134 l-277 121 -263 -2 c-145 -1 -301 -4 -348 -8z"/>
</g>
</svg>
